<svg xmlns="http://www.w3.org/2000/svg" viewBox="0 0 216 216">
  <defs><linearGradient id="h" x1="0" y1="0" x2="0" y2="1"><stop stop-color="#4b426d"/><stop offset=".48" stop-color="#282344"/><stop offset="1" stop-color="#0c0b1c"/></linearGradient><filter id="g"><feGaussianBlur stdDeviation="2" result="b"/><feMerge><feMergeNode in="b"/><feMergeNode in="SourceGraphic"/></feMerge></filter></defs>
  <rect x="4" y="4" width="208" height="208" rx="25" fill="#070713" stroke="#a9b8ff" stroke-width="3"/><path d="M29 5h158l24 24v158l-24 24H29L5 187V29z" fill="none" stroke="#312c56" stroke-width="12"/><path d="M32 11h152l20 20v154l-20 20H32l-20-20V31z" fill="none" stroke="url(#h)" stroke-width="8"/>
  <g fill="none" stroke="#c9a3ff" stroke-width="2" filter="url(#g)"><path d="M13 68V32l19-19h36M148 13h36l19 19v36M203 148v36l-19 19h-36M68 203H32l-19-19v-36"/><path d="M72 18h72M198 72v72M144 198H72M18 144V72"/></g><g fill="#7dffc4"><circle cx="28" cy="28" r="4"/><circle cx="188" cy="28" r="4"/><circle cx="188" cy="188" r="4"/><circle cx="28" cy="188" r="4"/></g><g fill="#ff70c8"><path d="M39 9h20l7 7H46zM157 200h20l-7 7h-20z"/><path d="M207 39v20l-7 7V46zM9 157v20l7-7v-20z"/></g><rect x="72" y="72" width="72" height="72" fill="#070713"/>
</svg>
