<svg xmlns="http://www.w3.org/2000/svg" width="64" height="64" viewBox="0 0 64 64">
  <defs>
    <style>
      .cls-1, .cls-2 {
        fill: none;
        stroke: #000;
        fill-rule: evenodd;
      }

      .cls-1 {
        stroke-width: 8px;
      }

      .cls-2 {
        stroke-linecap: round;
        stroke-width: 2px;
        stroke-dasharray: 0.001 4;
      }
    </style>
  </defs>
  <circle id="Ovaal_2" data-name="Ovaal 2" cx="30" cy="36" r="5"/>
  <ellipse id="Ovaal_2-2" data-name="Ovaal 2" cx="13" cy="48" rx="8" ry="5"/>
  <ellipse id="Ovaal_2-3" data-name="Ovaal 2" cx="29" cy="50.5" rx="8" ry="2.5"/>
  <ellipse id="Ovaal_3" data-name="Ovaal 3" cx="14" cy="43" rx="9" ry="6"/>
  <path id="Ovaal_1" data-name="Ovaal 1" class="cls-1" d="M21,27A16,16,0,1,1,5,43,16,16,0,0,1,21,27Zm0,0A16,16,0,1,1,5,43,16,16,0,0,1,21,27Zm0,0A16,16,0,1,1,5,43,16,16,0,0,1,21,27Zm0,0A16,16,0,1,1,5,43,16,16,0,0,1,21,27Zm0,0A16,16,0,1,1,5,43,16,16,0,0,1,21,27Z"/>
  <path id="Lijn_4" data-name="Lijn 4" class="cls-2" d="M44.68,18.616l0.64,0.768-12,10-0.64-.768Z"/>
  <path id="Ovaal_1-2" data-name="Ovaal 1" class="cls-1" d="M51,6a7,7,0,1,1-7,7A7,7,0,0,1,51,6Zm0,0a7,7,0,1,1-7,7A7,7,0,0,1,51,6Zm0,0a7,7,0,1,1-7,7A7,7,0,0,1,51,6Zm0,0a7,7,0,1,1-7,7A7,7,0,0,1,51,6Zm0,0a7,7,0,1,1-7,7A7,7,0,0,1,51,6Z"/>
</svg>
