<svg xmlns="http://www.w3.org/2000/svg" width="64" height="64" viewBox="0 0 64 64">
  <defs>
    <style>
      .cls-1 {
        fill: none;
        stroke: #000;
        stroke-width: 8px;
        fill-rule: evenodd;
      }
    </style>
  </defs>
  <path id="Ovaal_1" data-name="Ovaal 1" class="cls-1" d="M32,8A24,24,0,1,1,8,32,24,24,0,0,1,32,8Zm0,0A24,24,0,1,1,8,32,24,24,0,0,1,32,8Zm0,0A24,24,0,1,1,8,32,24,24,0,0,1,32,8Zm0,0A24,24,0,1,1,8,32,24,24,0,0,1,32,8Zm0,0A24,24,0,1,1,8,32,24,24,0,0,1,32,8Z"/>
  <circle id="Ovaal_4" data-name="Ovaal 4" cx="32" cy="32" r="8"/>
  <circle id="Ovaal_4-2" data-name="Ovaal 4" cx="32" cy="32" r="8"/>
  <circle id="Ovaal_4-3" data-name="Ovaal 4" cx="20" cy="39" r="4"/>
</svg>
